<svg width="175" opacity="0.3" height="175" viewBox="0 0 1500 1500" fill="none" xmlns="http://www.w3.org/2000/svg">
<g clip-path="url(#clip0_5_95)">
<g clip-path="url(#clip1_5_95)">
<path d="M675.1 1018.52C677.083 1025.85 683.878 1030.39 683.878 1030.39C683.878 1030.39 687.456 1023.05 685.472 1015.72C683.489 1008.38 676.694 1003.84 676.694 1003.84C676.694 1003.84 673.116 1011.19 675.1 1018.52Z" fill="#3F3D56"/>
<path d="M678.014 1016.95C683.458 1022.24 684.122 1030.39 684.122 1030.39C684.122 1030.39 675.962 1029.94 670.519 1024.64C665.076 1019.35 664.411 1011.2 664.411 1011.2C664.411 1011.2 672.571 1011.65 678.014 1016.95Z" fill="#6C63FF"/>
<path d="M826.16 1018.52C828.144 1025.85 834.938 1030.39 834.938 1030.39C834.938 1030.39 838.516 1023.05 836.533 1015.72C834.549 1008.38 827.755 1003.84 827.755 1003.84C827.755 1003.84 824.176 1011.19 826.16 1018.52Z" fill="#3F3D56"/>
<path d="M829.075 1016.95C834.518 1022.24 835.183 1030.39 835.183 1030.39C835.183 1030.39 827.023 1029.94 821.58 1024.64C816.136 1019.35 815.472 1011.2 815.472 1011.2C815.472 1011.2 823.632 1011.65 829.075 1016.95Z" fill="#6C63FF"/>
<path d="M1231.2 375.573V451.283L1195.73 475.191L1143.62 510.292L1085.71 549.315L994.843 503.888L880.026 446.494L856.113 434.54L832.201 415.409L906.034 349.492L927.239 330.563C952.286 308.204 984.689 295.846 1018.27 295.846H1151.46C1161.93 295.846 1172.3 297.908 1181.98 301.915C1191.65 305.921 1200.44 311.794 1207.84 319.197C1215.25 326.6 1221.12 335.389 1225.13 345.062C1229.14 354.735 1231.2 365.103 1231.2 375.573V375.573Z" fill="#3F3D56"/>
<path d="M1196.05 415.07L1231.2 376.866C1292.67 603.565 1297.69 822.729 1231.2 1032.35H1186.6L1184.2 1029.95L1122.02 967.788L1085.92 931.704L1086.87 924.749L1090.15 900.829L1097.35 848.224L1105.21 790.831L1113.07 733.449L1120.93 676.056L1127.3 629.493L1127.62 627.139L1128.78 618.663L1136.64 561.269L1143.62 510.292L1144.5 503.888L1150.28 461.645L1152.68 444.106L1195.73 415.409L1196.05 415.07Z" fill="#FF76B8"/>
<path d="M832.197 415.407H1195.73V1032.35H832.197C792.503 806.613 782.526 595.914 832.197 415.407Z" fill="#FF76B8"/>
<path d="M1150.29 790.834H872.856V848.224H1150.29V790.834Z" fill="#3F3D56"/>
<path d="M1171.48 927.958H1053.19V952.427H1171.48V927.958Z" fill="#3F3D56"/>
<path d="M960.697 927.958H842.409V952.427H960.697V927.958Z" fill="#3F3D56"/>
<path d="M1150.29 676.054H872.856V733.444H1150.29V676.054Z" fill="#3F3D56"/>
<path d="M1150.29 561.273H872.856V618.664H1150.29V561.273Z" fill="#3F3D56"/>
<path d="M1150.29 446.493H872.856V503.883H1150.29V446.493Z" fill="#3F3D56"/>
<path d="M1231.2 1029.95H597.683V1032.29H1231.2V1029.95Z" fill="#3F3D56"/>
<path d="M601.067 759.582H597.683V1031.28H601.067V759.582Z" fill="#3F3D56"/>
<path d="M1012.07 293.598L1157.49 286.488C1177.55 285.508 1197.24 292.129 1212.63 305.03C1228.01 317.931 1237.96 336.162 1240.49 356.08L1258.13 495.013L1196.18 415.14L1196.05 415.07L1010.64 318.923L1006.96 317.015C995.706 311.18 999.407 294.217 1012.07 293.598H1012.07Z" fill="#3F3D56"/>
<path d="M1085.99 341.38H967.708V365.849H1085.99V341.38Z" fill="#F2F2F2"/>
</g>
<path d="M704.652 801.445C704.452 801.445 704.326 801.44 704.281 801.437L680.27 801.44V797.897H704.368C704.926 797.917 716.31 798.239 726.799 785.505C742.429 766.527 755.265 719.546 727.651 603.504C690.52 447.469 721.489 309.621 736.526 257.597C737.267 255.023 737.4 252.312 736.914 249.678C736.427 247.044 735.336 244.56 733.725 242.42C732.113 240.281 730.027 238.546 727.631 237.353C725.234 236.159 722.593 235.539 719.916 235.542H361.315C358.589 235.546 355.902 236.193 353.472 237.43C351.042 238.668 348.938 240.461 347.331 242.664C340.961 251.432 332.219 268.276 326.748 298.732L323.264 298.106C328.853 266.988 337.879 249.649 344.467 240.582C346.403 237.927 348.938 235.766 351.865 234.275C354.793 232.784 358.03 232.004 361.315 232H719.917C723.142 231.997 726.325 232.744 729.212 234.183C732.1 235.623 734.613 237.714 736.554 240.292C738.495 242.87 739.81 245.864 740.396 249.039C740.981 252.213 740.821 255.48 739.928 258.581C724.967 310.335 694.159 447.468 731.095 602.684C759.097 720.358 745.636 768.357 729.412 787.902C718.712 800.792 706.921 801.445 704.652 801.445Z" fill="#E6E6E6"/>
<path d="M640.04 866.094C639.839 866.094 639.713 866.089 639.669 866.086L615.657 866.089V862.546H639.756C640.317 862.564 651.697 862.888 662.186 850.154C677.816 831.176 690.652 784.195 663.038 668.153C625.908 512.118 656.876 374.27 671.914 322.246C672.655 319.672 672.787 316.961 672.301 314.327C671.815 311.693 670.723 309.208 669.112 307.069C667.501 304.93 665.415 303.195 663.018 302.002C660.622 300.808 657.981 300.188 655.304 300.191H296.702C293.976 300.195 291.289 300.842 288.859 302.079C286.429 303.317 284.326 305.11 282.718 307.313C276.348 316.081 267.606 332.925 262.135 363.381L258.651 362.755C264.24 331.637 273.267 314.298 279.855 305.231C281.791 302.576 284.325 300.415 287.253 298.924C290.18 297.433 293.418 296.653 296.702 296.649H655.304C658.53 296.646 661.712 297.393 664.6 298.832C667.487 300.271 670.001 302.363 671.942 304.941C673.883 307.519 675.198 310.513 675.783 313.687C676.369 316.862 676.208 320.128 675.315 323.23C660.355 374.984 629.547 512.117 666.483 667.333C694.484 785.007 681.023 833.006 664.8 852.55C654.099 865.441 642.309 866.094 640.04 866.094Z" fill="#CCCCCC"/>
<path d="M575.427 930.742C575.226 930.742 575.1 930.737 575.056 930.735L221.982 930.737C218.582 930.741 215.234 929.912 212.229 928.321C209.225 926.73 206.656 924.427 204.747 921.613C202.838 918.798 201.647 915.559 201.279 912.178C200.911 908.796 201.377 905.377 202.636 902.217C215.447 870.193 232.696 793.361 204.285 638.593C170.737 455.84 200.772 389.793 215.242 369.879C217.178 367.224 219.713 365.063 222.64 363.572C225.567 362.081 228.805 361.302 232.09 361.297H590.691C593.917 361.294 597.099 362.042 599.987 363.481C602.875 364.92 605.388 367.011 607.329 369.589C609.27 372.167 610.585 375.162 611.17 378.336C611.756 381.51 611.596 384.777 610.702 387.878C595.742 439.632 564.934 576.765 601.87 731.981C629.872 849.655 616.411 897.654 600.187 917.199C589.486 930.089 577.696 930.742 575.427 930.742ZM232.09 364.84C229.363 364.843 226.676 365.49 224.246 366.728C221.817 367.965 219.713 369.758 218.105 371.962C203.904 391.506 174.467 456.55 207.767 637.953C234.908 785.801 221.745 863.982 205.923 903.534C204.857 906.143 204.456 908.977 204.758 911.78C205.06 914.583 206.055 917.266 207.653 919.588C209.237 921.933 211.372 923.852 213.87 925.178C216.368 926.504 219.154 927.197 221.982 927.195H575.143C575.7 927.222 587.084 927.537 597.573 914.802C613.203 895.824 626.039 848.843 598.425 732.801C561.295 576.766 592.263 438.918 607.301 386.894C608.042 384.32 608.174 381.609 607.688 378.975C607.202 376.342 606.11 373.857 604.499 371.718C602.888 369.579 600.802 367.844 598.405 366.65C596.009 365.456 593.368 364.837 590.691 364.84H232.09Z" fill="#3F3D56"/>
<path d="M529.697 520.705H248.233C244.477 520.705 240.875 519.213 238.219 516.555C235.563 513.898 234.071 510.294 234.071 506.536C234.071 502.778 235.563 499.174 238.219 496.516C240.875 493.859 244.477 492.366 248.233 492.366H529.697C533.453 492.366 537.055 493.859 539.711 496.516C542.366 499.174 543.858 502.778 543.858 506.536C543.858 510.294 542.366 513.898 539.711 516.555C537.055 519.213 533.453 520.705 529.697 520.705Z" fill="#5E6EE4"/>
<path d="M529.697 580.926H248.233C244.477 580.926 240.875 579.433 238.219 576.776C235.563 574.119 234.071 570.515 234.071 566.757C234.071 562.998 235.563 559.394 238.219 556.737C240.875 554.08 244.477 552.587 248.233 552.587H529.697C533.453 552.587 537.055 554.08 539.711 556.737C542.366 559.394 543.858 562.998 543.858 566.757C543.858 570.515 542.366 574.119 539.711 576.776C537.055 579.433 533.453 580.926 529.697 580.926Z" fill="#CCCCCC"/>
<path d="M529.697 641.147H248.233C244.477 641.147 240.875 639.654 238.219 636.997C235.563 634.34 234.071 630.736 234.071 626.978C234.071 623.22 235.563 619.616 238.219 616.958C240.875 614.301 244.477 612.808 248.233 612.808H529.697C533.453 612.808 537.055 614.301 539.711 616.958C542.366 619.616 543.858 623.22 543.858 626.978C543.858 630.736 542.366 634.34 539.711 636.997C537.055 639.654 533.453 641.147 529.697 641.147Z" fill="#CCCCCC"/>
<path d="M550.939 701.368H269.476C265.72 701.368 262.117 699.875 259.462 697.218C256.806 694.561 255.314 690.956 255.314 687.198C255.314 683.44 256.806 679.836 259.462 677.179C262.117 674.522 265.72 673.029 269.476 673.029H550.939C554.695 673.029 558.297 674.522 560.953 677.179C563.609 679.836 565.101 683.44 565.101 687.198C565.101 690.956 563.609 694.561 560.953 697.218C558.297 699.875 554.695 701.368 550.939 701.368Z" fill="#CCCCCC"/>
<path d="M550.939 761.589H269.476C265.72 761.589 262.117 760.096 259.462 757.439C256.806 754.781 255.314 751.177 255.314 747.419C255.314 743.661 256.806 740.057 259.462 737.4C262.117 734.742 265.72 733.25 269.476 733.25H550.939C554.695 733.25 558.297 734.742 560.953 737.4C563.609 740.057 565.101 743.661 565.101 747.419C565.101 751.177 563.609 754.781 560.953 757.439C558.297 760.096 554.695 761.589 550.939 761.589Z" fill="#CCCCCC"/>
<path d="M380.999 460.485H248.233C244.477 460.485 240.875 458.992 238.219 456.335C235.563 453.677 234.071 450.073 234.071 446.315C234.071 442.557 235.563 438.953 238.219 436.296C240.875 433.638 244.477 432.146 248.233 432.146H380.999C384.755 432.146 388.357 433.638 391.013 436.296C393.669 438.953 395.161 442.557 395.161 446.315C395.161 450.073 393.669 453.677 391.013 456.335C388.357 458.992 384.755 460.485 380.999 460.485Z" fill="#5E6EE4"/>
<path d="M363.856 858.689C366.713 846.583 380.138 842.614 391.114 843.058C398.049 843.526 404.927 844.616 411.668 846.312C418.72 847.891 425.704 849.76 432.653 851.743C445.396 855.379 458.008 859.777 470.96 862.619C481.744 864.986 493.462 866.374 504.215 863.107C514.552 859.966 523.322 852.256 526.134 841.596C528.785 831.551 525.146 820.567 515.417 815.977C506.545 811.79 495.339 813.919 490.941 823.387C485.983 834.061 490.937 845.702 498.788 853.427C503.25 857.619 508.137 861.333 513.37 864.509C518.682 868.131 524.594 870.78 530.831 872.334C541.072 874.523 553.271 871.298 558.552 861.509C559.726 859.293 560.432 856.859 560.626 854.358C560.939 850.954 555.626 850.976 555.316 854.358C554.421 864.106 543.012 868.671 534.48 867.602C528.721 866.647 523.221 864.511 518.326 861.329C513.602 858.573 509.125 855.412 504.946 851.883C497.71 845.617 490.927 835.306 495.787 825.529C499.744 817.567 510.06 817.647 516.335 822.781C523.934 828.999 522.579 840.285 517.567 847.67C512.018 855.846 501.959 859.273 492.476 859.643C482.172 860.045 471.953 857.679 462.105 854.881C449.868 851.404 437.754 847.513 425.458 844.239C418.477 842.381 411.443 840.704 404.337 839.399C397.618 837.918 390.716 837.44 383.857 837.981C372.775 839.261 361.463 845.715 358.735 857.276C357.95 860.602 363.069 862.021 363.856 858.689L363.856 858.689Z" fill="#3F3D56"/>
<path d="M906.425 1159.12C906.731 1193.99 909.284 1228.81 914.069 1263.36C914.236 1264.57 914.418 1265.79 914.587 1267L1241.02 1265.18C1241.98 1263.97 1242.92 1262.75 1243.83 1261.52C1246.88 1257.43 1249.74 1253.23 1252.36 1248.89C1264.96 1227.96 1270.73 1203.45 1264.95 1186.55L1264.85 1186.28C1263.6 1182.58 1261.63 1179.16 1259.06 1176.22C1245.88 1161.37 1219.22 1163.85 1195.04 1175.83C1216.73 1152.07 1234.01 1122.09 1235.32 1095.33C1236.6 1069.22 1222.96 1050.57 1208.17 1034.73C1207.68 1034.2 1207.19 1033.69 1206.71 1033.18C1206.47 1032.92 1206.22 1032.67 1205.99 1032.41C1194.44 1020.34 1180.99 1008.43 1161.5 1009.87C1140.14 1011.45 1116.45 1029.36 1099.84 1050.22C1083.23 1071.07 1072.2 1094.76 1061.01 1117.88C1049.81 1140.98 1037.69 1164.67 1019.71 1184.42C1044.06 1153.61 1063.69 1118.55 1070.94 1084.46C1078.19 1050.36 1071.81 1017.61 1050.11 1001.56C1043.52 996.83 1035.9 993.753 1027.88 992.581C1026.95 992.425 1025.99 992.299 1025.03 992.187C1004.94 989.9 980.959 996.851 960.555 1013.47C938.083 1031.76 922.503 1058.88 914.752 1084.63C907.001 1110.37 906.175 1135.16 906.425 1159.12Z" fill="#2BD832"/>
<path d="M1120 1265.85L1126.24 1265.82C1128.22 1264.58 1130.21 1263.35 1132.21 1262.14C1133.45 1261.36 1134.7 1260.61 1135.96 1259.84C1156.66 1247.19 1177.5 1235.05 1198.46 1223.43C1219.4 1211.8 1240.45 1200.71 1261.61 1190.15C1262.17 1189.9 1262.63 1189.47 1262.9 1188.92C1263.18 1188.38 1263.25 1187.75 1263.11 1187.15C1263.09 1187.08 1263.05 1187 1263.01 1186.94C1262.71 1186.38 1262.05 1186.15 1261.09 1186.62C1258.5 1187.93 1255.89 1189.23 1253.29 1190.56C1232.08 1201.3 1210.96 1212.57 1189.93 1224.38C1168.91 1236.19 1148.01 1248.52 1127.24 1261.36C1126.8 1261.63 1126.36 1261.91 1125.92 1262.18C1123.94 1263.4 1121.98 1264.63 1120 1265.85Z" fill="white"/>
<path d="M1039.51 1266.3L1043.37 1266.28C1044.24 1265.06 1045.1 1263.84 1045.97 1262.62C1066.42 1233.92 1086.87 1205.23 1107.32 1176.53C1140.8 1129.54 1174.27 1082.56 1207.73 1035.58C1207.93 1035.32 1208.08 1035.04 1208.17 1034.73C1208.45 1033.69 1207.69 1033.08 1206.71 1033.18C1206.3 1033.24 1205.9 1033.39 1205.55 1033.61C1205.2 1033.84 1204.9 1034.13 1204.67 1034.48C1185.9 1060.83 1167.13 1087.17 1148.37 1113.5C1115.06 1160.25 1081.76 1206.99 1048.46 1253.73C1046.35 1256.7 1044.23 1259.68 1042.11 1262.64C1041.24 1263.86 1040.37 1265.08 1039.51 1266.3Z" fill="white"/>
<path d="M953.522 1243.87C953.719 1250.38 954.15 1256.79 954.712 1263.13C954.821 1264.35 954.93 1265.56 955.039 1266.77L959.089 1266.75C958.965 1265.54 958.841 1264.32 958.733 1263.11C957.877 1253.94 957.27 1244.67 957.187 1235.15C957.08 1208.75 959.651 1182.4 964.862 1156.52C970.401 1128.66 978.355 1101.32 988.632 1074.84C999.419 1046.9 1012.42 1019.87 1027.52 994.016C1027.81 993.595 1027.93 993.086 1027.88 992.581C1027.71 991.426 1026.18 991.083 1025.03 992.187C1024.8 992.403 1024.61 992.651 1024.45 992.922C1022.58 996.136 1020.75 999.359 1018.95 1002.59C1004.4 1028.59 991.956 1055.71 981.722 1083.7C971.974 1110.27 964.559 1137.64 959.562 1165.51C954.881 1191.35 952.857 1217.61 953.522 1243.87V1243.87Z" fill="white"/>
<path d="M558.983 859.948C558.311 859.388 557.82 858.643 557.572 857.805C557.323 856.967 557.328 856.074 557.586 855.238C557.844 854.403 558.343 853.663 559.021 853.111C559.698 852.559 560.524 852.221 561.394 852.138C571.049 851.205 580.793 852.204 590.058 855.077L684.438 884.241C685.66 884.619 686.795 885.233 687.779 886.05C688.763 886.866 689.577 887.869 690.174 889C690.771 890.131 691.14 891.369 691.259 892.643C691.378 893.916 691.245 895.201 690.868 896.423C690.49 897.646 689.876 898.782 689.06 899.767C688.244 900.751 687.242 901.566 686.111 902.163C684.981 902.761 683.744 903.129 682.471 903.248C681.198 903.367 679.914 903.234 678.692 902.857L584.312 873.693C575.041 870.838 566.431 866.166 558.983 859.948V859.948Z" fill="#3F3D56"/>
<path d="M945.857 981.097C943.293 980.021 940.996 978.396 939.128 976.336C937.26 974.276 935.866 971.831 935.045 969.174C934.223 966.516 933.994 963.711 934.373 960.955C934.752 958.2 935.731 955.561 937.24 953.224L921.063 868.576L962.293 865.359L964.782 948.158C968.537 950.954 971.136 955.031 972.087 959.617C973.038 964.202 972.275 968.978 969.942 973.038C967.61 977.098 963.869 980.161 959.43 981.647C954.991 983.132 950.162 982.937 945.857 981.097Z" fill="#FFB8B8"/>
<path d="M918.518 937.41L876.523 741.724C874.799 733.686 876.336 725.293 880.797 718.389C885.257 711.486 892.276 706.638 900.309 704.912C908.342 703.187 916.731 704.725 923.63 709.188C930.53 713.651 935.375 720.674 937.1 728.711L979.095 924.396C979.536 926.462 979.139 928.62 977.993 930.394C976.846 932.169 975.043 933.416 972.979 933.862L927.979 943.53C926.956 943.75 925.9 943.766 924.871 943.578C923.842 943.389 922.86 943 921.981 942.431C921.102 941.863 920.344 941.127 919.75 940.265C919.156 939.404 918.737 938.434 918.518 937.41V937.41Z" fill="#5E6EE4"/>
<path d="M849.59 1245.24H827.889L817.563 1161.48L849.595 1161.48L849.59 1245.24Z" fill="#FFB8B8"/>
<path d="M812.386 1239.03H854.241V1265.4H786.033C786.033 1261.94 786.715 1258.51 788.039 1255.31C789.364 1252.11 791.305 1249.21 793.752 1246.76C796.199 1244.31 799.104 1242.37 802.301 1241.04C805.499 1239.72 808.926 1239.03 812.386 1239.03V1239.03Z" fill="#2F2E41"/>
<path d="M922.169 1243.47H900.468L890.142 1159.71L922.174 1159.71L922.169 1243.47Z" fill="#FFB8B8"/>
<path d="M884.965 1237.26H926.82V1263.63H858.612C858.612 1260.17 859.294 1256.74 860.618 1253.54C861.942 1250.34 863.884 1247.43 866.331 1244.99C868.778 1242.54 871.683 1240.6 874.88 1239.27C878.077 1237.95 881.504 1237.26 884.965 1237.26V1237.26Z" fill="#2F2E41"/>
<path d="M823.588 1229.62C822.775 1228.95 822.103 1228.12 821.611 1227.19C821.12 1226.26 820.819 1225.24 820.727 1224.19L795.497 946.504C795.399 945.427 795.522 944.34 795.857 943.311C796.193 942.282 796.734 941.332 797.449 940.52C798.163 939.707 799.035 939.048 800.012 938.584C800.99 938.119 802.051 937.859 803.132 937.818L929.666 933.07C930.761 933.029 931.853 933.215 932.873 933.615C933.893 934.016 934.82 934.623 935.595 935.397C936.37 936.172 936.977 937.099 937.378 938.119C937.779 939.14 937.965 940.232 937.926 941.327L927.811 1217.95C927.737 1219.88 926.961 1221.73 925.629 1223.13C924.297 1224.54 922.5 1225.41 920.571 1225.59L895.058 1227.91C894 1228.01 892.933 1227.89 891.921 1227.57C890.908 1227.25 889.971 1226.73 889.163 1226.04C888.355 1225.35 887.694 1224.5 887.217 1223.55C886.741 1222.6 886.459 1221.57 886.388 1220.51L874.679 1044.77C874.671 1044.44 874.596 1044.1 874.458 1043.79C874.319 1043.49 874.121 1043.21 873.875 1042.98C873.628 1042.75 873.338 1042.57 873.022 1042.45C872.705 1042.33 872.369 1042.28 872.031 1042.29H872.021C871.682 1042.28 871.345 1042.34 871.027 1042.45C870.71 1042.57 870.42 1042.76 870.174 1042.99C869.928 1043.22 869.731 1043.5 869.594 1043.81C869.458 1044.12 869.384 1044.46 869.379 1044.79L858.9 1221.71C858.796 1223.61 858.016 1225.4 856.702 1226.77C855.389 1228.14 853.629 1228.99 851.741 1229.17L829.453 1231.4C828.406 1231.51 827.348 1231.41 826.341 1231.1C825.334 1230.79 824.398 1230.29 823.588 1229.62H823.588Z" fill="#FF76B8"/>
<path d="M872.261 663.329C896.273 663.329 915.739 643.852 915.739 619.826C915.739 595.8 896.273 576.324 872.261 576.324C848.249 576.324 828.783 595.8 828.783 619.826C828.783 643.852 848.249 663.329 872.261 663.329Z" fill="#FFB8B8"/>
<path d="M788.533 948.385C787.759 947.505 787.19 946.464 786.868 945.337C786.546 944.21 786.478 943.026 786.67 941.869C794.696 893.052 790.172 821.296 784.963 769.696C783.604 756.008 785.873 742.204 791.541 729.672C797.21 717.141 806.079 706.325 817.254 698.314L839.96 678.841C841.47 677.561 843.395 676.88 845.373 676.924L901.782 678.537C903.816 678.592 905.751 679.428 907.188 680.87L915.904 700.184L915.994 700.249C926.381 707.889 934.714 717.984 940.249 729.634C945.783 741.284 948.345 754.124 947.707 767.007L939.404 938.701C939.298 940.697 938.45 942.581 937.026 943.984C935.602 945.387 933.706 946.206 931.709 946.282L794.788 951.095C794.7 951.097 794.612 951.099 794.524 951.099C793.389 951.101 792.268 950.859 791.235 950.391C790.201 949.923 789.28 949.239 788.533 948.385V948.385Z" fill="#5E6EE4"/>
<path d="M624.3 876.738C624.232 873.957 624.774 871.195 625.888 868.646C627.002 866.098 628.661 863.824 630.748 861.987C632.835 860.149 635.299 858.792 637.967 858.01C640.636 857.228 643.442 857.041 646.191 857.463L716.76 808.049L736.568 844.373L662.083 880.533C661.07 885.105 658.416 889.147 654.624 891.892C650.831 894.637 646.164 895.895 641.507 895.427C636.85 894.959 632.526 892.798 629.354 889.353C626.183 885.909 624.385 881.42 624.3 876.738L624.3 876.738Z" fill="#FFB8B8"/>
<path d="M683.688 885.327C682.654 885.171 681.66 884.811 680.765 884.268C679.87 883.726 679.092 883.011 678.474 882.165L651.241 845.041C649.993 843.336 649.472 841.205 649.793 839.116C650.113 837.028 651.248 835.151 652.949 833.898L814.206 715.47C820.829 710.606 829.113 708.573 837.234 709.82C841.255 710.437 845.115 711.841 848.594 713.951C852.073 716.061 855.103 718.836 857.51 722.117C859.917 725.399 861.655 729.122 862.624 733.076C863.593 737.029 863.774 741.135 863.157 745.158C862.54 749.182 861.137 753.044 859.028 756.525C856.92 760.006 854.146 763.037 850.867 765.446L689.61 883.874C688.25 884.878 686.604 885.42 684.913 885.421C684.503 885.42 684.094 885.389 683.688 885.327V885.327Z" fill="#5E6EE4"/>
<path d="M874.486 658.553C880.252 651.479 879.621 640.705 874.993 632.838C870.366 624.972 862.51 619.554 854.427 615.323C846.344 611.091 837.757 607.764 830.15 602.725C822.543 597.687 822.874 576.357 820.849 567.457L825.68 569.067C823.823 566.69 823.227 559.667 821.371 557.291C826.829 557.83 831.027 563.016 836.486 563.556L833.336 555.096C852.055 553.941 863.693 566.956 882.412 565.801C891.686 565.229 901.758 564.867 909.383 570.181C916.008 574.8 919.362 582.793 921.563 590.566C926.288 607.257 927.022 625.953 918.861 641.258C910.7 656.563 891.889 666.876 875.455 661.349L874.486 658.553Z" fill="#2F2E41"/>
<path d="M635.779 1266.38H1310.23C1310.7 1266.38 1311.15 1266.19 1311.48 1265.86C1311.81 1265.53 1312 1265.08 1312 1264.61C1312 1264.14 1311.81 1263.69 1311.48 1263.36C1311.15 1263.02 1310.7 1262.84 1310.23 1262.84H635.779C635.31 1262.84 634.859 1263.02 634.527 1263.36C634.196 1263.69 634.009 1264.14 634.009 1264.61C634.009 1265.08 634.196 1265.53 634.527 1265.86C634.859 1266.19 635.31 1266.38 635.779 1266.38Z" fill="#3F3D56"/>
<ellipse cx="1041.36" cy="758.932" rx="2.65532" ry="2.6568" fill="#D9D9D9"/>
<ellipse cx="846.634" cy="633.176" rx="7.96595" ry="7.9704" fill="black"/>
</g>
<defs>
<clipPath id="clip0_5_95">
<rect width="1123" height="1035" fill="white" transform="translate(189 232)"/>
</clipPath>
<clipPath id="clip1_5_95">
<rect width="681.52" height="811.504" fill="white" transform="translate(597.683 221.463)"/>
</clipPath>
</defs>
</svg>
